<?xml version="1.0" encoding="utf-8"?>
<!-- Generator: Adobe Illustrator 16.0.0, SVG Export Plug-In . SVG Version: 6.00 Build 0)  -->
<!DOCTYPE svg PUBLIC "-//W3C//DTD SVG 1.1//EN" "http://www.w3.org/Graphics/SVG/1.1/DTD/svg11.dtd">
<svg version="1.1" id="svg1953" xmlns:svg="http://www.w3.org/2000/svg"
	 xmlns="http://www.w3.org/2000/svg" xmlns:xlink="http://www.w3.org/1999/xlink" x="0px" y="0px" width="100px" height="120px"
	 viewBox="172.155 158.925 100 120" enable-background="new 172.155 158.925 100 120" xml:space="preserve">
<path id="path1962" d="M247.924,265.959c-0.101-0.158-4.958-9.49-10.793-20.737c-5.836-11.247-10.7-20.542-10.812-20.654
	c-0.13-0.132-3.218,2.811-8.629,8.221c-7.906,7.904-8.428,8.472-8.425,9.165c0.001,0.406,0.327,3.396,0.722,6.642l0.719,5.903
	l-3.417,3.432l-3.417,3.431l-3.965-7.547l-3.964-7.547l-7.461-3.896c-4.104-2.143-7.463-3.944-7.466-4.003
	c-0.003-0.06,1.504-1.615,3.348-3.456l3.353-3.349l6.577,0.799l6.577,0.798l8.519-8.516c6.644-6.641,8.454-8.562,8.225-8.727
	c-0.162-0.116-9.65-5.144-21.084-11.173l-20.79-10.961l4.293-4.293l4.293-4.293l25.662,6.801l25.663,6.801l11.734-11.711
	c8.225-8.208,12.018-11.853,12.683-12.187c0.612-0.307,1.475-0.51,2.433-0.573c1.886-0.123,3.288,0.428,4.536,1.781
	c1.159,1.258,1.535,2.207,1.529,3.864c-0.008,2.559,0.137,2.386-13.04,15.601l-11.878,11.911l5.131,19.817
	c2.821,10.899,5.745,22.202,6.497,25.116l1.366,5.299l-4.269,4.265C249.205,265.149,248.06,266.172,247.924,265.959z"/>
</svg>
