<?xml version="1.0" encoding="utf-8"?>
<!-- Generator: Adobe Illustrator 16.0.0, SVG Export Plug-In . SVG Version: 6.00 Build 0)  -->
<!DOCTYPE svg PUBLIC "-//W3C//DTD SVG 1.1//EN" "http://www.w3.org/Graphics/SVG/1.1/DTD/svg11.dtd">
<svg version="1.1" id="Layer_1" xmlns="http://www.w3.org/2000/svg" xmlns:xlink="http://www.w3.org/1999/xlink" x="0px" y="0px"
	 width="100px" height="120px" viewBox="200 190 100 120" enable-background="new 200 190 100 120" xml:space="preserve">
<path fill="#010101" d="M265.352,286.457v-42.213h2.878c1.592,0,2.878,1.285,2.878,2.878v26.864c0,6.888,5.584,12.472,12.472,12.472
	c6.889,0,12.473-5.584,12.473-12.472v-51.654c0-2.706-1.113-5.142-2.896-6.889l-10.171-10.111c-1.841-1.844-4.816-1.844-6.658,0
	c-1.842,1.842-1.842,4.816,0,6.656l6.602,6.62l-4.874,5.085c-1.592,1.63-1.592,4.259,0,5.891c0.785,0.843,1.843,1.247,2.897,1.228
	l5.507-0.019v43.192c0,1.593-1.285,2.878-2.878,2.878s-2.879-1.285-2.879-2.878v-26.864c0-6.888-5.583-12.472-12.472-12.472h-2.878
	v-23.026c0-4.24-3.436-7.675-7.676-7.675h-40.295c-4.241,0-7.675,3.435-7.675,7.675v74.833h-0.959c-2.647,0-4.797,2.149-4.797,4.798
	c0,2.647,2.149,4.796,4.797,4.796h57.564c2.647,0,4.796-2.148,4.796-4.796c0-2.648-2.148-4.798-4.796-4.798H265.352z
	 M223.521,213.542h28.014c2.34,0,4.222,1.881,4.222,4.222v20.338c0,2.34-1.882,4.222-4.222,4.222h-28.014
	c-2.34,0-4.222-1.881-4.222-4.222v-20.338C219.299,215.424,221.181,213.542,223.521,213.542z"/>
</svg>
