<?xml version="1.0" encoding="utf-8"?>
<!-- Generator: Adobe Illustrator 16.0.0, SVG Export Plug-In . SVG Version: 6.00 Build 0)  -->
<!DOCTYPE svg PUBLIC "-//W3C//DTD SVG 1.1//EN" "http://www.w3.org/Graphics/SVG/1.1/DTD/svg11.dtd">
<svg version="1.1" id="Layer_1" xmlns="http://www.w3.org/2000/svg" xmlns:xlink="http://www.w3.org/1999/xlink" x="0px" y="0px"
	 width="100px" height="120px" viewBox="200 190 100 120" enable-background="new 200 190 100 120" xml:space="preserve">
<path fill="#010101" d="M290.767,273.443c-4.648-6.066-10.271-10.006-18.328-12.24l-7.549,26.431c0,2.435-1.994,4.427-4.428,4.427
	s-4.428-1.992-4.428-4.427v-21.03c0-3.055-2.479-5.535-5.534-5.535s-5.534,2.48-5.534,5.535v21.03c0,2.435-1.993,4.427-4.427,4.427
	c-2.435,0-4.428-1.992-4.428-4.427l-7.549-26.431c-8.057,2.257-13.68,6.174-18.328,12.24c-1.837,2.391-2.836,7.194-2.901,9.763
	c0.022,0.664,0,1.439,0,2.213v4.428v4.428c0,4.893,3.963,8.854,8.855,8.854h68.625c4.892,0,8.855-3.962,8.855-8.854v-4.428v-4.428
	c0-0.773-0.021-1.549,0-2.213C293.601,280.638,292.604,275.834,290.767,273.443z M227.256,220.292
	c0,12.928,8.06,31.922,23.244,31.922c14.921,0,23.244-18.994,23.244-31.922s-10.405-23.421-23.244-23.421
	C237.661,196.871,227.256,207.364,227.256,220.292z"/>
</svg>
