<?xml version="1.0" encoding="utf-8"?>
<!-- Generator: Adobe Illustrator 16.0.0, SVG Export Plug-In . SVG Version: 6.00 Build 0)  -->
<!DOCTYPE svg PUBLIC "-//W3C//DTD SVG 1.1//EN" "http://www.w3.org/Graphics/SVG/1.1/DTD/svg11.dtd">
<svg version="1.1" id="Livello_1" xmlns="http://www.w3.org/2000/svg" xmlns:xlink="http://www.w3.org/1999/xlink" x="0px" y="0px"
	 width="100px" height="120px" viewBox="20.866 10.866 100 120" enable-background="new 20.866 10.866 100 120"
	 xml:space="preserve">
<g id="Livello_12">
	<path d="M97.506,109.93H44.221V23.562h53.284V109.93z M66.717,118.7c0-2.375,1.907-4.303,4.26-4.303
		c2.355,0,4.259,1.928,4.259,4.303c0,2.373-1.904,4.303-4.259,4.303C68.624,123,66.717,121.073,66.717,118.7 M101.081,122.604h0.007
		V19.097v0v-0.021h-0.001c-0.012-2.364-1.929-4.275-4.296-4.275c-0.017,0-0.031,0.002-0.046,0.002V14.8h-9.654H58.928h-13.99
		c-2.364,0.001-4.28,1.914-4.292,4.275h0V122.6h0.006c-0.001,0.046-0.006,0.091-0.006,0.138c0,2.315,1.946,4.192,4.347,4.192
		c0.036,0,0.07-0.004,0.105-0.004v0.004h51.752l0,0c2.338,0,4.239-1.876,4.239-4.192
		C101.088,122.692,101.083,122.646,101.081,122.604"/>
</g>
<g id="Livello_1_1_">
</g>
</svg>
