<?xml version="1.0" encoding="utf-8"?>
<!-- Generator: Adobe Illustrator 16.0.0, SVG Export Plug-In . SVG Version: 6.00 Build 0)  -->
<!DOCTYPE svg PUBLIC "-//W3C//DTD SVG 1.1//EN" "http://www.w3.org/Graphics/SVG/1.1/DTD/svg11.dtd">
<svg version="1.1" id="Layer_1" xmlns="http://www.w3.org/2000/svg" xmlns:xlink="http://www.w3.org/1999/xlink" x="0px" y="0px"
	 width="100px" height="120px" viewBox="200 190 100 120" enable-background="new 200 190 100 120" xml:space="preserve">
<path fill="#010101" d="M203.449,281.973c0,7.507,6.07,13.577,13.577,13.577c3.742,0,7.235-1.417,9.698-3.879l24.75-24.768
	l6.633,6.633c-0.893,3.259-0.039,6.905,2.542,9.504l9.619,9.62c3.84,3.821,9.988,3.859,13.771,0.077
	c3.782-3.783,3.744-9.93-0.078-13.771l-9.62-9.62c-2.6-2.58-6.245-3.433-9.504-2.54l-6.633-6.616l4.266-4.266
	c9.077,2.289,19.085-0.099,26.165-7.021c4.868-4.771,7.547-10.823,7.914-17.087v-0.33c0-2.115-1.746-3.822-3.898-3.822
	c-1.067,0-2.037,0.428-2.755,1.106l-1.143,1.125l-3.919,3.839c-2.465,2.405-5.975,3.82-9.757,3.82c-3.762,0-7.08-1.647-9.542-4.072
	c-2.425-2.462-4.092-5.8-4.092-9.562c0-3.782,1.415-7.292,3.82-9.756l3.84-3.919l1.124-1.142c0.68-0.718,1.106-1.688,1.106-2.756
	c0-2.151-1.706-3.898-3.822-3.898h-0.329c-6.264,0.367-12.315,3.046-17.087,7.914c-6.923,7.08-9.291,17.088-7.003,26.146
	l-4.284,4.285l-17.903-17.92v-4.908l-11.637-5.819l-5.819,5.818l5.819,11.638h4.887l17.922,17.903l-24.749,24.768
	C204.866,274.737,203.449,278.23,203.449,281.973z M213.147,281.003c0-2.676,2.172-4.849,4.849-4.849
	c2.676,0,4.849,2.173,4.849,4.849c0,2.677-2.172,4.85-4.849,4.85S213.147,283.68,213.147,281.003z"/>
</svg>
