<?xml version="1.0" encoding="utf-8"?>
<!-- Generator: Adobe Illustrator 16.0.0, SVG Export Plug-In . SVG Version: 6.00 Build 0)  -->
<!DOCTYPE svg PUBLIC "-//W3C//DTD SVG 1.1//EN" "http://www.w3.org/Graphics/SVG/1.1/DTD/svg11.dtd">
<svg version="1.1" id="Layer_1" xmlns="http://www.w3.org/2000/svg" xmlns:xlink="http://www.w3.org/1999/xlink" x="0px" y="0px"
	 width="100px" height="120px" viewBox="-34 -44 100 120" enable-background="new -34 -44 100 120" xml:space="preserve">
<g id="Layer_1_1_">
</g>
<g id="wrench">
	<path fill="#4E4E50" d="M60.744-13.695L46.341,0.707H31.288v-15.288L45.512-28.8c-2.094-0.634-4.278-1.075-6.574-1.075
		C26.271-29.875,16-19.599,16-6.938c0,3.532,0.862,6.837,2.296,9.835l-45.932,45.918c-1.376,1.39-2.239,3.293-2.239,5.421
		c0,4.212,3.415,7.639,7.649,7.639c2.116,0,4.032-0.852,5.398-2.24l45.942-45.925C32.095,15.132,35.409,16,38.938,16
		C51.604,16,61.875,5.724,61.875-6.938C61.875-9.306,61.416-11.545,60.744-13.695z"/>
</g>
</svg>
